<svg width="200" height="200" viewBox="0 0 200 200" xmlns="http://www.w3.org/2000/svg">
  <!-- Background Circle -->
  <circle cx="100" cy="100" r="90" fill="#3B82F6" stroke="#1D4ED8" stroke-width="4"/>
  
  <!-- Calculator Body -->
  <rect x="60" y="60" width="80" height="100" rx="8" fill="white" stroke="#E5E7EB" stroke-width="2"/>
  
  <!-- Display Screen -->
  <rect x="70" y="70" width="60" height="20" rx="4" fill="#1F2937"/>
  <text x="100" y="84" text-anchor="middle" fill="white" font-family="monospace" font-size="10">TAX</text>
  
  <!-- Calculator Buttons -->
  <!-- Row 1 -->
  <circle cx="80" cy="105" r="6" fill="#F3F4F6" stroke="#D1D5DB"/>
  <circle cx="100" cy="105" r="6" fill="#F3F4F6" stroke="#D1D5DB"/>
  <circle cx="120" cy="105" r="6" fill="#F3F4F6" stroke="#D1D5DB"/>
  
  <!-- Row 2 -->
  <circle cx="80" cy="125" r="6" fill="#F3F4F6" stroke="#D1D5DB"/>
  <circle cx="100" cy="125" r="6" fill="#F3F4F6" stroke="#D1D5DB"/>
  <circle cx="120" cy="125" r="6" fill="#F3F4F6" stroke="#D1D5DB"/>
  
  <!-- Row 3 -->
  <circle cx="80" cy="145" r="6" fill="#F3F4F6" stroke="#D1D5DB"/>
  <circle cx="100" cy="145" r="6" fill="#F3F4F6" stroke="#D1D5DB"/>
  <circle cx="120" cy="145" r="6" fill="#10B981" stroke="#059669"/>
  
  <!-- AI Symbol -->
  <circle cx="100" cy="40" r="15" fill="#8B5CF6" opacity="0.9"/>
  <text x="100" y="46" text-anchor="middle" fill="white" font-family="Arial, sans-serif" font-size="14" font-weight="bold">AI</text>
  
  <!-- Sparkle Effects -->
  <circle cx="130" cy="45" r="2" fill="#F59E0B"/>
  <circle cx="70" cy="50" r="1.5" fill="#EF4444"/>
  <circle cx="135" cy="65" r="1" fill="#10B981"/>
  
  <!-- Bottom Text -->
  <text x="100" y="175" text-anchor="middle" fill="white" font-family="Arial, sans-serif" font-size="10">ASSISTANT</text>
</svg>